<?xml version="1.0" encoding="UTF-8" standalone="no"?>
<svg
   xmlns:dc="http://purl.org/dc/elements/1.1/"
   xmlns:cc="http://creativecommons.org/ns#"
   xmlns:rdf="http://www.w3.org/1999/02/22-rdf-syntax-ns#"
   xmlns:svg="http://www.w3.org/2000/svg"
   xmlns="http://www.w3.org/2000/svg"
   viewBox="0 0 156 51.000001"
   height="51"
   width="156"
   xml:space="preserve"
   id="svg2"
   version="1.1"><metadata
     id="metadata8"><rdf:RDF><cc:Work
         rdf:about=""><dc:format>image/svg+xml</dc:format><dc:type
           rdf:resource="http://purl.org/dc/dcmitype/StillImage" /><dc:title></dc:title></cc:Work></rdf:RDF></metadata><defs
     id="defs6"><clipPath
       id="clipPath20"
       clipPathUnits="userSpaceOnUse"><path
         style="clip-rule:evenodd"
         id="path18"
         d="M 0,0 H 960 V 540 H 0 Z" /></clipPath></defs><g
     transform="matrix(1.3333333,0,0,-1.3333333,-400.79918,343.41482)"
     id="g10"><g
       transform="matrix(1,0,0,-1,17.218735,546.57481)"
       id="g12"><g
         transform="matrix(0.26856956,0,0,0.26856956,207.19755,239.72649)"
         clip-path="none"
         id="g14"><g
           clip-path="url(#clipPath20)"
           id="g16"><g
             id="g22" /><g
             id="g26"><path
               id="path28"
               style="fill:#404040;fill-opacity:1;fill-rule:evenodd;stroke:none"
               d="m 324.554,215.18 v 13.477 h 6.738 l 0.816,-0.027 0.763,-0.079 0.711,-0.131 0.658,-0.184 0.605,-0.237 0.553,-0.29 0.5,-0.342 0.448,-0.395 0.394,-0.447 0.343,-0.5 0.289,-0.553 0.237,-0.606 0.184,-0.658 0.132,-0.71 0.079,-0.764 0.026,-0.816 -0.026,-0.816 -0.079,-0.763 -0.132,-0.711 -0.184,-0.658 -0.237,-0.605 -0.289,-0.553 -0.343,-0.5 -0.394,-0.447 -0.448,-0.395 -0.5,-0.342 -0.553,-0.29 -0.605,-0.237 -0.658,-0.184 -0.711,-0.132 -0.763,-0.079 -0.816,-0.026 z m 0,32.007 v 35.376 h -33.692 v -94.336 h 53.906 l 1.659,0.033 1.605,0.099 1.553,0.164 1.501,0.23 1.447,0.296 1.395,0.362 1.343,0.428 1.289,0.494 1.238,0.559 1.184,0.625 1.132,0.691 1.079,0.757 1.027,0.822 0.973,0.889 0.922,0.954 0.868,1.02 0.816,1.086 0.764,1.151 0.71,1.218 0.658,1.283 0.606,1.349 0.552,1.414 0.501,1.481 0.447,1.546 0.395,1.613 0.342,1.678 0.29,1.743 0.236,1.81 0.185,1.875 0.131,1.942 0.079,2.007 0.027,2.072 -0.014,1.191 -0.04,1.164 -0.067,1.137 -0.094,1.11 -0.121,1.083 -0.148,1.056 -0.174,1.03 -0.202,1.002 -0.228,0.975 -0.255,0.948 -0.282,0.921 -0.308,0.894 -0.336,0.868 -0.362,0.84 -0.39,0.813 -0.416,0.786 -0.443,0.76 -0.47,0.732 -0.496,0.705 -0.524,0.679 -0.55,0.651 -0.578,0.625 -0.604,0.597 -0.631,0.57 -0.657,0.544 -0.685,0.516 -0.711,0.49 -0.739,0.463 -0.765,0.435 -0.792,0.409 -0.819,0.381 -0.845,0.355 20.484,35.915 h -33.692 l -20.214,-35.376" /></g><g
             id="g30"><path
               id="path32"
               style="fill:#404040;fill-opacity:1;fill-rule:nonzero;stroke:none"
               d="m 326.054,228.657 -1.5,-1.5 h 6.738 -0.048 l 0.816,-0.026 -0.106,0.007 0.763,-0.079 -0.119,0.017 0.711,-0.131 -0.132,0.03 0.658,-0.184 -0.142,0.048 0.606,-0.237 -0.15,0.068 0.553,-0.29 -0.151,0.091 0.5,-0.342 -0.145,0.113 0.447,-0.395 -0.132,0.133 0.395,-0.448 -0.113,0.146 0.342,-0.501 -0.091,0.151 0.289,-0.552 -0.068,0.149 0.237,-0.605 -0.047,0.142 0.184,-0.658 -0.031,0.131 0.132,-0.71 -0.017,0.118 0.079,-0.763 -0.007,0.106 0.026,-0.816 v 0.097 l -0.026,-0.816 0.007,0.106 -0.079,-0.764 0.017,0.119 -0.132,-0.71 0.031,0.131 -0.184,-0.658 0.047,0.142 -0.237,-0.605 0.068,0.149 -0.289,-0.553 0.091,0.151 -0.342,-0.5 0.113,0.146 -0.395,-0.448 0.132,0.132 -0.447,-0.394 0.145,0.113 -0.5,-0.342 0.151,0.09 -0.553,-0.289 0.15,0.068 -0.606,-0.237 0.142,0.048 -0.658,-0.185 0.132,0.031 -0.711,-0.132 0.119,0.017 -0.763,-0.079 0.106,0.008 -0.816,-0.027 0.048,0.001 h -6.738 l 1.5,-1.5 z m -3,-13.477 0.022,-0.26 0.068,-0.253 0.111,-0.237 0.15,-0.214 0.184,-0.185 0.215,-0.15 0.237,-0.11 0.252,-0.068 0.261,-0.023 h 6.738 l 0.048,0.001 0.816,0.026 0.106,0.007 0.764,0.079 0.118,0.017 0.711,0.132 0.131,0.031 0.658,0.184 0.143,0.047 0.605,0.237 0.149,0.068 0.553,0.29 0.151,0.091 0.5,0.342 0.146,0.113 0.447,0.395 0.132,0.132 0.395,0.448 0.113,0.145 0.343,0.5 0.09,0.151 0.29,0.553 0.068,0.149 0.237,0.606 0.048,0.142 0.184,0.658 0.03,0.131 0.132,0.711 0.017,0.119 0.079,0.763 0.007,0.106 0.026,0.816 v 0.097 l -0.026,0.816 -0.007,0.106 -0.079,0.763 -0.017,0.119 -0.132,0.71 -0.03,0.132 -0.184,0.658 -0.048,0.142 -0.237,0.605 -0.068,0.15 -0.29,0.553 -0.09,0.151 -0.343,0.5 -0.113,0.145 -0.395,0.448 -0.132,0.132 -0.447,0.395 -0.146,0.113 -0.5,0.342 -0.151,0.091 -0.553,0.289 -0.149,0.068 -0.605,0.237 -0.143,0.048 -0.658,0.184 -0.131,0.031 -0.711,0.131 -0.118,0.017 -0.764,0.079 -0.106,0.008 -0.816,0.026 -0.048,0.001 h -6.738 l -0.261,-0.023 -0.252,-0.068 -0.237,-0.11 -0.215,-0.15 -0.184,-0.185 -0.15,-0.214 -0.111,-0.237 -0.068,-0.253 -0.022,-0.26 z m 3,67.383 -0.023,0.26 -0.068,0.253 -0.11,0.237 -0.15,0.214 -0.185,0.185 -0.214,0.15 -0.237,0.11 -0.253,0.068 -0.26,0.023 h -33.692 l -0.26,-0.023 -0.253,-0.068 -0.237,-0.11 -0.214,-0.15 -0.185,-0.185 -0.15,-0.214 -0.11,-0.237 -0.068,-0.253 -0.023,-0.26 v -94.336 l 0.023,-0.261 0.068,-0.252 0.11,-0.237 0.15,-0.214 0.185,-0.185 0.214,-0.15 0.237,-0.111 0.253,-0.067 0.26,-0.023 h 53.906 0.03 l 1.658,0.033 0.063,0.003 1.605,0.098 0.066,0.006 1.553,0.164 0.07,0.009 1.5,0.231 0.073,0.013 1.448,0.296 0.076,0.018 1.395,0.362 0.079,0.022 1.342,0.428 0.081,0.028 1.29,0.494 0.081,0.034 1.238,0.559 0.082,0.04 1.184,0.626 0.082,0.046 1.131,0.691 0.08,0.052 1.079,0.757 0.077,0.057 1.027,0.823 0.072,0.062 0.974,0.889 0.069,0.066 0.921,0.954 0.063,0.069 0.868,1.02 0.057,0.072 0.816,1.085 0.052,0.073 0.763,1.151 0.045,0.073 0.711,1.217 0.039,0.072 0.658,1.283 0.034,0.071 0.605,1.348 0.029,0.069 0.553,1.415 0.024,0.065 0.5,1.481 0.019,0.063 0.448,1.546 0.016,0.061 0.395,1.612 0.013,0.057 0.342,1.678 0.01,0.054 0.289,1.744 0.008,0.051 0.237,1.809 0.005,0.048 0.185,1.876 0.003,0.045 0.132,1.941 0.002,0.043 0.079,2.007 10e-4,0.04 0.026,2.072 v 0.036 l -0.013,1.191 -0.001,0.035 -0.04,1.164 -0.002,0.037 -0.067,1.137 -0.003,0.038 -0.094,1.11 -0.003,0.04 -0.121,1.083 -0.005,0.041 -0.148,1.056 -0.007,0.043 -0.174,1.029 -0.009,0.045 -0.201,1.002 -0.01,0.046 -0.228,0.976 -0.012,0.047 -0.255,0.949 -0.014,0.049 -0.282,0.921 -0.017,0.051 -0.309,0.894 -0.019,0.052 -0.335,0.867 -0.022,0.053 -0.362,0.84 -0.024,0.053 -0.39,0.814 -0.027,0.054 -0.416,0.786 -0.03,0.054 -0.443,0.76 -0.033,0.054 -0.47,0.732 -0.036,0.054 -0.497,0.705 -0.039,0.053 -0.523,0.678 -0.042,0.052 -0.551,0.651 -0.044,0.05 -0.577,0.625 -0.047,0.048 -0.604,0.597 -0.049,0.047 -0.631,0.57 -0.05,0.044 -0.658,0.543 -0.052,0.041 -0.685,0.517 -0.053,0.038 -0.711,0.49 -0.054,0.035 -0.738,0.463 -0.055,0.032 -0.765,0.436 -0.054,0.029 -0.792,0.409 -0.054,0.026 -0.819,0.382 -0.054,0.024 -0.845,0.354 0.723,-2.126 20.484,35.915 0.109,0.237 0.066,0.252 0.022,0.26 -0.024,0.26 -0.068,0.251 -0.111,0.236 -0.15,0.214 -0.185,0.184 -0.214,0.149 -0.236,0.11 -0.252,0.067 -0.26,0.023 h -33.692 l -0.261,-0.023 -0.254,-0.068 -0.237,-0.112 -0.215,-0.151 -0.185,-0.186 -0.15,-0.216 -20.215,-35.376 2.803,-0.744 z m -3,-35.376 0.023,-0.261 0.067,-0.253 0.111,-0.237 0.151,-0.214 0.185,-0.185 0.215,-0.15 0.238,-0.11 0.253,-0.068 0.261,-0.022 0.261,0.024 0.252,0.068 0.237,0.112 0.214,0.151 0.185,0.186 0.149,0.215 20.215,35.376 -1.303,-0.756 h 33.692 l -1.303,2.243 -20.484,-35.915 -0.107,-0.23 -0.066,-0.244 -0.024,-0.253 0.018,-0.253 0.061,-0.246 0.102,-0.232 0.139,-0.212 0.173,-0.185 0.202,-0.154 0.224,-0.117 0.846,-0.355 -0.053,0.024 0.818,-0.382 -0.054,0.027 0.792,-0.409 -0.054,0.03 0.765,-0.436 -0.054,0.032 0.738,-0.462 -0.054,0.035 0.712,-0.489 -0.053,0.038 0.684,-0.516 -0.052,0.041 0.658,-0.544 -0.051,0.044 0.631,-0.571 -0.048,0.047 0.604,-0.598 -0.047,0.048 0.577,-0.624 -0.044,0.05 0.55,-0.651 -0.041,0.051 0.523,-0.678 -0.039,0.053 0.497,-0.706 -0.036,0.054 0.47,-0.732 -0.034,0.054 0.443,-0.76 -0.03,0.055 0.416,-0.787 -0.027,0.054 0.39,-0.813 -0.025,0.054 0.363,-0.841 -0.022,0.053 0.336,-0.867 -0.019,0.052 0.308,-0.894 -0.016,0.05 0.282,-0.921 -0.014,0.049 0.255,-0.948 -0.012,0.048 0.228,-0.975 -0.01,0.046 0.201,-1.002 -0.008,0.045 0.174,-1.029 -0.006,0.043 0.147,-1.056 -0.005,0.041 0.121,-1.083 -0.004,0.04 0.094,-1.11 -0.003,0.038 0.068,-1.137 -0.002,0.036 0.04,-1.164 -10e-4,0.035 0.014,-1.191 v 0.036 l -0.027,-2.072 0.001,0.04 -0.079,-2.007 0.003,0.042 -0.132,-1.941 0.004,0.045 -0.184,-1.875 0.005,0.048 -0.237,-1.81 0.008,0.051 -0.29,-1.744 0.01,0.054 -0.342,-1.678 0.013,0.057 -0.395,-1.612 0.016,0.06 -0.447,-1.546 0.019,0.063 -0.5,-1.481 0.024,0.066 -0.552,-1.414 0.028,0.068 -0.605,-1.349 0.034,0.07 -0.658,-1.283 0.039,0.072 -0.711,-1.218 0.045,0.073 -0.763,-1.152 0.051,0.073 -0.816,-1.086 0.057,0.071 -0.868,-1.02 0.063,0.07 -0.922,-0.954 0.069,0.066 -0.974,-0.888 0.073,0.062 -1.027,-0.823 0.077,0.058 -1.079,-0.757 0.079,0.052 -1.132,-0.691 0.082,0.047 -1.185,-0.625 0.083,0.04 -1.237,-0.56 0.081,0.035 -1.289,-0.494 0.08,0.028 -1.342,-0.427 0.079,0.022 -1.395,-0.362 0.076,0.018 -1.448,-0.296 0.073,0.013 -1.5,-0.23 0.069,0.009 -1.553,-0.165 0.066,0.006 -1.605,-0.099 0.062,0.003 -1.658,-0.033 h 0.029 -53.906 l 1.5,-1.5 v 94.336 l -1.5,-1.5 h 33.692 l -1.5,1.5 v -35.376" /></g><g
             id="g34"><path
               id="path36"
               style="fill:#404040;fill-opacity:1;fill-rule:evenodd;stroke:none"
               d="m 490.222,242.133 v 6.738 h -6.739 v -6.738 z m -86.52,33.692 v -6.739 h -12.869 v -6.738 h 9.231 l 4.245,-13.477 h 7.749 v -6.738 h -5.661 l 2.157,-6.738 h -6.064 v -6.738 h 8.153 l 12.735,-40.43 h 34.365 l 12.938,40.43 h -5.593 v 6.738 h 7.816 l 8.625,26.953 h -7.007 v 6.738 h 16.98 v 6.739 h -16.98 v 6.738 h -20.215 l -13.477,-40.43 -13.476,40.43 h -47.168 v -6.738 h 23.516" /></g><g
             id="g38"><path
               id="path40"
               style="fill:#404040;fill-opacity:1;fill-rule:evenodd;stroke:none"
               d="m 510.051,242.133 v 6.738 h 6.738 v -6.738 z m 114.55,0 v 6.738 h -6.738 v -6.738 z m -121.289,-6.738 h -6.738 v -6.738 h 6.738 v -40.43 h 33.692 l 20.215,26.953 20.214,-26.953 h 33.692 v 40.43 h -6.739 v 6.738 h 6.739 v 26.953 h -6.739 v 6.738 h 13.477 v 6.739 h -20.215 v 6.738 h -20.215 v -47.168 l -20.214,26.953 -20.215,-26.953 v 47.168 h -47.168 v -6.738 h 20.215 v -6.739 h -13.477 v -6.738 h 6.738 v -26.953" /></g><g
             id="g42"><path
               id="path44"
               style="fill:#404040;fill-opacity:1;fill-rule:nonzero;stroke:none"
               d="m 491.722,248.871 -0.023,0.261 -0.068,0.253 -0.11,0.236 -0.15,0.215 -0.185,0.185 -0.214,0.15 -0.237,0.11 -0.253,0.068 -0.26,0.022 h -6.739 l -0.26,-0.022 -0.253,-0.068 -0.237,-0.11 -0.214,-0.15 -0.185,-0.185 -0.15,-0.215 -0.11,-0.236 -0.068,-0.253 -0.023,-0.261 v -6.738 l 0.023,-0.26 0.068,-0.253 0.11,-0.237 0.15,-0.214 0.185,-0.185 0.214,-0.15 0.237,-0.11 0.253,-0.068 0.26,-0.023 h 6.739 l 0.26,0.023 0.253,0.068 0.237,0.11 0.214,0.15 0.185,0.185 0.15,0.214 0.11,0.237 0.068,0.253 0.023,0.26 z m -3,-6.738 1.5,1.5 h -6.739 l 1.5,-1.5 v 6.738 l -1.5,-1.5 h 6.739 l -1.5,1.5 z m -86.52,26.953 1.5,1.5 h -12.869 l -0.261,-0.022 -0.252,-0.068 -0.237,-0.111 -0.215,-0.15 -0.185,-0.184 -0.149,-0.215 -0.111,-0.237 -0.068,-0.252 -0.022,-0.261 v -6.738 l 0.022,-0.26 0.068,-0.253 0.111,-0.237 0.149,-0.214 0.185,-0.185 0.215,-0.15 0.237,-0.11 0.252,-0.068 0.261,-0.023 h 9.231 l -1.431,1.049 4.245,-13.476 0.105,-0.25 0.147,-0.227 0.186,-0.197 0.219,-0.16 0.243,-0.118 0.261,-0.073 0.27,-0.025 h 7.749 l -1.5,1.5 v -6.738 l 1.5,1.5 h -5.661 l -0.255,-0.022 -0.248,-0.065 -0.233,-0.106 -0.211,-0.144 -0.184,-0.178 -0.151,-0.207 -0.114,-0.23 -0.073,-0.245 -0.03,-0.254 0.014,-0.256 0.057,-0.25 2.156,-6.738 1.429,1.957 h -6.064 l -0.261,-0.023 -0.252,-0.068 -0.237,-0.11 -0.215,-0.15 -0.184,-0.185 -0.15,-0.214 -0.111,-0.237 -0.068,-0.253 -0.022,-0.26 v -6.738 l 0.022,-0.261 0.068,-0.252 0.111,-0.237 0.15,-0.215 0.184,-0.184 0.215,-0.15 0.237,-0.111 0.252,-0.068 0.261,-0.022 h 8.153 l -1.431,1.049 12.735,-40.43 0.105,-0.25 0.147,-0.227 0.186,-0.197 0.219,-0.16 0.243,-0.118 0.261,-0.073 0.27,-0.024 h 34.365 l 0.269,0.024 0.26,0.072 0.243,0.118 0.218,0.159 0.186,0.195 0.148,0.226 0.105,0.249 12.938,40.429 0.057,0.25 0.013,0.256 -0.03,0.254 -0.073,0.246 -0.113,0.229 -0.151,0.207 -0.184,0.178 -0.212,0.145 -0.233,0.106 -0.248,0.065 -0.255,0.022 h -5.593 l 1.5,-1.5 v 6.738 l -1.5,-1.5 h 7.816 l 0.269,0.024 0.26,0.072 0.243,0.118 0.218,0.159 0.186,0.195 0.148,0.226 0.105,0.249 8.625,26.953 0.057,0.25 0.014,0.255 -0.03,0.255 -0.073,0.245 -0.114,0.23 -0.151,0.207 -0.184,0.178 -0.212,0.144 -0.233,0.106 -0.247,0.065 -0.256,0.022 h -7.007 l 1.5,-1.5 v 6.738 l -1.5,-1.5 h 16.98 l 0.261,0.023 0.252,0.068 0.237,0.11 0.214,0.15 0.185,0.185 0.15,0.214 0.111,0.237 0.067,0.253 0.023,0.26 v 6.739 l -0.023,0.26 -0.067,0.253 -0.111,0.237 -0.15,0.214 -0.185,0.185 -0.214,0.15 -0.237,0.11 -0.252,0.068 -0.261,0.023 h -16.98 l 1.5,-1.5 v 6.738 l -0.023,0.26 -0.068,0.253 -0.11,0.237 -0.15,0.214 -0.185,0.185 -0.214,0.15 -0.237,0.11 -0.253,0.068 -0.26,0.023 h -20.215 l -0.266,-0.024 -0.258,-0.071 -0.241,-0.115 -0.217,-0.156 -0.186,-0.193 -0.148,-0.222 -0.107,-0.245 -13.477,-40.429 h 2.846 l -13.476,40.429 -0.107,0.245 -0.149,0.222 -0.185,0.193 -0.217,0.156 -0.241,0.115 -0.258,0.071 -0.266,0.024 h -47.168 l -0.261,-0.023 -0.252,-0.068 -0.237,-0.11 -0.215,-0.15 -0.184,-0.185 -0.15,-0.214 -0.111,-0.237 -0.068,-0.253 -0.022,-0.26 v -6.738 l 0.022,-0.261 0.068,-0.252 0.111,-0.237 0.15,-0.215 0.184,-0.184 0.215,-0.15 0.237,-0.111 0.252,-0.068 0.261,-0.022 h 23.516 l -1.5,1.5 z m 3,6.739 -0.023,0.26 -0.067,0.253 -0.111,0.237 -0.15,0.214 -0.185,0.185 -0.214,0.15 -0.237,0.11 -0.252,0.068 -0.261,0.023 h -23.516 l 1.5,-1.5 v 6.738 l -1.5,-1.5 h 47.168 l -1.423,1.026 13.476,-40.43 0.107,-0.245 0.149,-0.222 0.185,-0.193 0.217,-0.156 0.241,-0.115 0.258,-0.071 0.266,-0.024 0.266,0.024 0.258,0.071 0.241,0.115 0.217,0.156 0.186,0.193 0.148,0.222 0.107,0.245 13.477,40.43 -1.423,-1.026 h 20.215 l -1.5,1.5 v -6.738 l 0.022,-0.261 0.068,-0.252 0.111,-0.237 0.15,-0.215 0.184,-0.184 0.215,-0.15 0.237,-0.111 0.252,-0.068 0.261,-0.022 h 16.98 l -1.5,1.5 v -6.739 l 1.5,1.5 h -16.98 l -0.261,-0.022 -0.252,-0.068 -0.237,-0.111 -0.215,-0.15 -0.184,-0.184 -0.15,-0.215 -0.111,-0.237 -0.068,-0.252 -0.022,-0.261 v -6.738 l 0.022,-0.26 0.068,-0.253 0.111,-0.237 0.15,-0.214 0.184,-0.185 0.215,-0.15 0.237,-0.11 0.252,-0.068 0.261,-0.023 h 7.007 l -1.428,1.957 -8.625,-26.953 1.428,1.043 h -7.816 l -0.26,-0.023 -0.253,-0.068 -0.237,-0.11 -0.214,-0.15 -0.185,-0.185 -0.15,-0.214 -0.111,-0.237 -0.067,-0.253 -0.023,-0.26 v -6.738 l 0.023,-0.261 0.067,-0.252 0.111,-0.237 0.15,-0.215 0.185,-0.184 0.214,-0.15 0.237,-0.111 0.253,-0.068 0.26,-0.022 h 5.593 l -1.429,1.957 -12.937,-40.43 1.428,1.043 h -34.365 l 1.431,-1.049 -12.736,40.429 -0.104,0.25 -0.148,0.227 -0.186,0.197 -0.218,0.16 -0.244,0.119 -0.261,0.072 -0.269,0.025 h -8.153 l 1.5,-1.5 v 6.738 l -1.5,-1.5 h 6.064 l 0.255,0.022 0.248,0.065 0.233,0.106 0.211,0.144 0.184,0.178 0.151,0.207 0.114,0.23 0.073,0.245 0.03,0.255 -0.014,0.255 -0.057,0.25 -2.156,6.738 -1.429,-1.957 h 5.661 l 0.26,0.023 0.253,0.068 0.237,0.11 0.214,0.15 0.185,0.185 0.15,0.214 0.11,0.237 0.068,0.253 0.023,0.26 v 6.738 l -0.023,0.261 -0.068,0.253 -0.11,0.236 -0.15,0.215 -0.185,0.185 -0.214,0.15 -0.237,0.11 -0.253,0.068 -0.26,0.022 h -7.749 l 1.431,-1.049 -4.245,13.477 -0.105,0.25 -0.147,0.227 -0.187,0.197 -0.218,0.16 -0.244,0.118 -0.26,0.073 -0.27,0.024 h -9.231 l 1.5,-1.5 v 6.738 l -1.5,-1.5 h 12.869 l 0.261,0.023 0.252,0.068 0.237,0.11 0.214,0.15 0.185,0.185 0.15,0.214 0.111,0.237 0.067,0.253 0.023,0.26 v 6.739" /></g><g
             id="g46"><path
               id="path48"
               style="fill:#404040;fill-opacity:1;fill-rule:nonzero;stroke:none"
               d="m 511.551,248.871 -1.5,-1.5 h 6.738 l -1.5,1.5 v -6.738 l 1.5,1.5 h -6.738 l 1.5,-1.5 z m -3,-6.738 0.022,-0.26 0.068,-0.253 0.11,-0.237 0.15,-0.214 0.185,-0.185 0.215,-0.15 0.236,-0.11 0.253,-0.068 0.261,-0.023 h 6.738 l 0.26,0.023 0.253,0.068 0.237,0.11 0.214,0.15 0.185,0.185 0.15,0.214 0.11,0.237 0.068,0.253 0.023,0.26 v 6.738 l -0.023,0.261 -0.068,0.253 -0.11,0.236 -0.15,0.215 -0.185,0.185 -0.214,0.15 -0.237,0.11 -0.253,0.068 -0.26,0.022 h -6.738 l -0.261,-0.022 -0.253,-0.068 -0.236,-0.11 -0.215,-0.15 -0.185,-0.185 -0.15,-0.215 -0.11,-0.236 -0.068,-0.253 -0.022,-0.261 z m 117.55,6.738 -0.023,0.261 -0.067,0.253 -0.111,0.236 -0.15,0.215 -0.185,0.185 -0.214,0.15 -0.237,0.11 -0.252,0.068 -0.261,0.022 h -6.738 l -0.26,-0.022 -0.253,-0.068 -0.237,-0.11 -0.214,-0.15 -0.185,-0.185 -0.15,-0.215 -0.111,-0.236 -0.067,-0.253 -0.023,-0.261 v -6.738 l 0.023,-0.26 0.067,-0.253 0.111,-0.237 0.15,-0.214 0.185,-0.185 0.214,-0.15 0.237,-0.11 0.253,-0.068 0.26,-0.023 h 6.738 l 0.261,0.023 0.252,0.068 0.237,0.11 0.214,0.15 0.185,0.185 0.15,0.214 0.111,0.237 0.067,0.253 0.023,0.26 z m -3,-6.738 1.5,1.5 h -6.738 l 1.5,-1.5 v 6.738 l -1.5,-1.5 h 6.738 l -1.5,1.5 z m -126.527,-5.238 -0.261,-0.023 -0.252,-0.068 -0.237,-0.11 -0.214,-0.15 -0.185,-0.185 -0.15,-0.214 -0.111,-0.237 -0.067,-0.253 -0.023,-0.26 v -6.738 l 0.023,-0.261 0.067,-0.252 0.111,-0.237 0.15,-0.215 0.185,-0.184 0.214,-0.15 0.237,-0.111 0.252,-0.068 0.261,-0.022 h 6.738 l -1.5,1.5 v -40.43 l 0.023,-0.261 0.068,-0.252 0.11,-0.237 0.15,-0.214 0.185,-0.185 0.214,-0.15 0.237,-0.111 0.253,-0.067 0.26,-0.023 h 33.692 l 0.23,0.018 0.226,0.053 0.214,0.087 0.199,0.12 0.178,0.148 0.153,0.174 20.214,26.953 h -2.4 l 20.215,-26.953 0.153,-0.174 0.178,-0.148 0.198,-0.12 0.215,-0.087 0.225,-0.053 0.231,-0.018 h 33.692 l 0.26,0.023 0.253,0.067 0.237,0.111 0.214,0.15 0.185,0.185 0.15,0.214 0.11,0.237 0.068,0.252 0.023,0.261 v 40.43 l -0.023,0.26 -0.068,0.253 -0.11,0.237 -0.15,0.214 -0.185,0.185 -0.214,0.15 -0.237,0.11 -0.253,0.068 -0.26,0.023 h -6.739 l 1.5,-1.5 v 6.738 l -1.5,-1.5 h 6.739 l 0.26,0.023 0.253,0.067 0.237,0.111 0.214,0.15 0.185,0.185 0.15,0.214 0.11,0.237 0.068,0.252 0.023,0.261 v 26.953 l -0.023,0.261 -0.068,0.252 -0.11,0.237 -0.15,0.214 -0.185,0.185 -0.214,0.15 -0.237,0.111 -0.253,0.067 -0.26,0.023 h -6.739 l 1.5,-1.5 v 6.738 l -1.5,-1.5 h 13.477 l 0.26,0.023 0.253,0.068 0.237,0.11 0.214,0.15 0.185,0.185 0.15,0.214 0.111,0.237 0.067,0.253 0.023,0.26 v 6.739 l -0.023,0.26 -0.067,0.253 -0.111,0.237 -0.15,0.214 -0.185,0.185 -0.214,0.15 -0.237,0.11 -0.253,0.068 -0.26,0.023 h -20.215 l 1.5,-1.5 v 6.738 l -0.023,0.26 -0.067,0.253 -0.111,0.237 -0.15,0.214 -0.185,0.185 -0.214,0.15 -0.237,0.11 -0.252,0.068 -0.261,0.023 h -20.215 l -0.26,-0.023 -0.253,-0.068 -0.237,-0.11 -0.214,-0.15 -0.185,-0.185 -0.15,-0.214 -0.11,-0.237 -0.068,-0.253 -0.023,-0.26 v -47.168 l 2.7,0.9 -20.215,26.953 -0.168,0.189 -0.197,0.157 -0.221,0.123 -0.238,0.083 -0.249,0.043 h -0.253 l -0.249,-0.043 -0.238,-0.083 -0.221,-0.123 -0.197,-0.157 -0.169,-0.189 -20.214,-26.953 2.7,-0.9 v 47.168 l -0.023,0.26 -0.068,0.253 -0.11,0.237 -0.15,0.214 -0.185,0.185 -0.214,0.15 -0.237,0.11 -0.253,0.068 -0.26,0.023 h -47.168 l -0.261,-0.023 -0.252,-0.068 -0.237,-0.11 -0.215,-0.15 -0.184,-0.185 -0.15,-0.214 -0.111,-0.237 -0.068,-0.253 -0.022,-0.26 v -6.738 l 0.022,-0.261 0.068,-0.252 0.111,-0.237 0.15,-0.215 0.184,-0.184 0.215,-0.15 0.237,-0.111 0.252,-0.068 0.261,-0.022 h 20.215 l -1.5,1.5 v -6.739 l 1.5,1.5 h -13.477 l -0.261,-0.022 -0.252,-0.068 -0.237,-0.111 -0.214,-0.15 -0.185,-0.184 -0.15,-0.215 -0.111,-0.237 -0.067,-0.252 -0.023,-0.261 v -6.738 l 0.023,-0.26 0.067,-0.253 0.111,-0.237 0.15,-0.214 0.185,-0.185 0.214,-0.15 0.237,-0.11 0.252,-0.068 0.261,-0.023 h 6.738 l -1.5,1.5 v -26.953 l 1.5,1.5 z m 6.738,-3 0.261,0.023 0.252,0.067 0.237,0.111 0.214,0.15 0.185,0.185 0.15,0.214 0.111,0.237 0.067,0.252 0.023,0.261 v 26.953 l -0.023,0.261 -0.067,0.252 -0.111,0.237 -0.15,0.214 -0.185,0.185 -0.214,0.15 -0.237,0.111 -0.252,0.067 -0.261,0.023 h -6.738 l 1.5,-1.5 v 6.738 l -1.5,-1.5 h 13.477 l 0.26,0.023 0.253,0.068 0.237,0.11 0.214,0.15 0.185,0.185 0.15,0.214 0.11,0.237 0.068,0.253 0.023,0.26 v 6.739 l -0.023,0.26 -0.068,0.253 -0.11,0.237 -0.15,0.214 -0.185,0.185 -0.214,0.15 -0.237,0.11 -0.253,0.068 -0.26,0.023 h -20.215 l 1.5,-1.5 v 6.738 l -1.5,-1.5 h 47.168 l -1.5,1.5 v -47.168 l 0.023,-0.266 0.071,-0.258 0.116,-0.241 0.156,-0.217 0.192,-0.186 0.222,-0.148 0.245,-0.107 0.26,-0.062 0.267,-0.014 0.266,0.033 0.255,0.08 0.237,0.123 0.211,0.164 0.179,0.199 20.214,26.953 h -2.4 l 20.215,-26.953 0.179,-0.199 0.211,-0.164 0.237,-0.123 0.255,-0.08 0.266,-0.033 0.267,0.014 0.26,0.062 0.245,0.107 0.222,0.148 0.192,0.186 0.157,0.217 0.115,0.241 0.07,0.258 0.024,0.266 v 47.168 l -1.5,-1.5 h 20.215 l -1.5,1.5 v -6.738 l 0.023,-0.261 0.068,-0.252 0.11,-0.237 0.15,-0.215 0.185,-0.184 0.214,-0.15 0.237,-0.111 0.253,-0.068 0.26,-0.022 h 20.215 l -1.5,1.5 v -6.739 l 1.5,1.5 h -13.477 l -0.26,-0.022 -0.253,-0.068 -0.237,-0.111 -0.214,-0.15 -0.185,-0.184 -0.15,-0.215 -0.11,-0.237 -0.068,-0.252 -0.023,-0.261 v -6.738 l 0.023,-0.26 0.068,-0.253 0.11,-0.237 0.15,-0.214 0.185,-0.185 0.214,-0.15 0.237,-0.11 0.253,-0.068 0.26,-0.023 h 6.739 l -1.5,1.5 v -26.953 l 1.5,1.5 h -6.739 l -0.26,-0.023 -0.253,-0.068 -0.237,-0.11 -0.214,-0.15 -0.185,-0.185 -0.15,-0.214 -0.11,-0.237 -0.068,-0.253 -0.023,-0.26 v -6.738 l 0.023,-0.261 0.068,-0.252 0.11,-0.237 0.15,-0.215 0.185,-0.184 0.214,-0.15 0.237,-0.111 0.253,-0.068 0.26,-0.022 h 6.739 l -1.5,1.5 v -40.43 l 1.5,1.5 h -33.692 l 1.2,-0.6 -20.215,26.953 -0.168,0.189 -0.197,0.157 -0.221,0.123 -0.238,0.083 -0.249,0.043 h -0.253 l -0.249,-0.043 -0.238,-0.083 -0.221,-0.123 -0.197,-0.157 -0.169,-0.189 -20.214,-26.953 1.2,0.6 h -33.692 l 1.5,-1.5 v 40.43 l -0.023,0.26 -0.067,0.253 -0.111,0.237 -0.15,0.214 -0.185,0.185 -0.214,0.15 -0.237,0.11 -0.252,0.068 -0.261,0.023 h -6.738 l 1.5,-1.5 v 6.738 l -1.5,-1.5 h 6.738" /></g><g
             id="g50"><path
               id="path52"
               style="fill:#404040;fill-opacity:1;fill-rule:evenodd;stroke:none"
               d="m 660.154,255.61 v 26.953 h -33.692 v -94.336 h 53.906 l 1.659,0.033 1.605,0.099 1.553,0.164 1.501,0.23 1.447,0.296 1.395,0.362 1.343,0.428 1.289,0.494 1.238,0.559 1.184,0.625 1.132,0.691 1.079,0.757 1.027,0.822 0.973,0.889 0.922,0.954 0.868,1.02 0.816,1.086 0.764,1.151 0.71,1.218 0.658,1.283 0.606,1.349 0.552,1.414 0.501,1.481 0.447,1.546 0.395,1.613 0.342,1.678 0.29,1.743 0.236,1.81 0.185,1.875 0.131,1.942 0.079,2.007 0.027,2.072 -0.027,2.073 -0.079,2.007 -0.131,1.941 -0.185,1.876 -0.236,1.809 -0.29,1.744 -0.342,1.678 -0.395,1.612 -0.447,1.547 -0.501,1.48 -0.552,1.415 -0.606,1.349 -0.658,1.283 -0.71,1.218 -0.764,1.151 -0.816,1.086 -0.868,1.02 -0.922,0.954 -0.973,0.888 -1.027,0.823 -1.079,0.757 -1.132,0.691 -1.184,0.625 -1.238,0.559 -1.289,0.494 -1.343,0.427 -1.395,0.362 -1.447,0.296 -1.501,0.231 -1.553,0.164 -1.605,0.099 -1.659,0.033 z m 0,-40.43 v 13.477 h 6.738 l 0.816,-0.027 0.763,-0.079 0.711,-0.131 0.658,-0.184 0.605,-0.237 0.553,-0.29 0.5,-0.342 0.448,-0.395 0.394,-0.447 0.343,-0.5 0.289,-0.553 0.237,-0.606 0.184,-0.658 0.132,-0.71 0.079,-0.764 0.026,-0.816 -0.026,-0.816 -0.079,-0.763 -0.132,-0.711 -0.184,-0.658 -0.237,-0.605 -0.289,-0.553 -0.343,-0.5 -0.394,-0.447 -0.448,-0.395 -0.5,-0.342 -0.553,-0.29 -0.605,-0.237 -0.658,-0.184 -0.711,-0.132 -0.763,-0.079 -0.816,-0.026 h -6.738" /></g><g
             id="g54"><path
               id="path56"
               style="fill:#404040;fill-opacity:1;fill-rule:nonzero;stroke:none"
               d="m 661.654,282.563 -0.023,0.26 -0.068,0.253 -0.11,0.237 -0.15,0.214 -0.185,0.185 -0.214,0.15 -0.237,0.11 -0.253,0.068 -0.26,0.023 h -33.692 l -0.26,-0.023 -0.253,-0.068 -0.237,-0.11 -0.214,-0.15 -0.185,-0.185 -0.15,-0.214 -0.11,-0.237 -0.068,-0.253 -0.023,-0.26 v -94.336 l 0.023,-0.261 0.068,-0.252 0.11,-0.237 0.15,-0.214 0.185,-0.185 0.214,-0.15 0.237,-0.111 0.253,-0.067 0.26,-0.023 h 53.906 0.03 l 1.659,0.033 0.062,0.003 1.605,0.098 0.066,0.006 1.553,0.164 0.07,0.009 1.5,0.231 0.073,0.013 1.448,0.296 0.076,0.018 1.395,0.362 0.079,0.022 1.342,0.428 0.081,0.028 1.29,0.494 0.081,0.034 1.238,0.559 0.082,0.04 1.184,0.626 0.082,0.046 1.131,0.691 0.08,0.052 1.079,0.757 0.077,0.057 1.027,0.823 0.072,0.062 0.974,0.889 0.069,0.066 0.921,0.954 0.063,0.069 0.868,1.02 0.057,0.072 0.816,1.085 0.052,0.073 0.763,1.151 0.045,0.073 0.711,1.217 0.039,0.072 0.658,1.283 0.034,0.071 0.605,1.348 0.029,0.069 0.553,1.415 0.024,0.065 0.5,1.481 0.019,0.063 0.448,1.546 0.016,0.061 0.395,1.612 0.013,0.057 0.342,1.678 0.01,0.054 0.289,1.744 0.008,0.051 0.237,1.809 0.005,0.048 0.185,1.876 0.003,0.045 0.132,1.941 0.002,0.043 0.079,2.007 10e-4,0.04 0.027,2.072 v 0.038 l -0.027,2.073 -10e-4,0.04 -0.079,2.007 -0.002,0.043 -0.132,1.941 -0.003,0.045 -0.185,1.875 -0.005,0.048 -0.237,1.81 -0.008,0.051 -0.289,1.744 -0.01,0.054 -0.342,1.678 -0.013,0.057 -0.395,1.612 -0.016,0.06 -0.448,1.547 -0.019,0.063 -0.5,1.48 -0.024,0.066 -0.553,1.415 -0.029,0.068 -0.605,1.349 -0.034,0.071 -0.658,1.283 -0.039,0.071 -0.711,1.218 -0.045,0.072 -0.763,1.152 -0.052,0.072 -0.816,1.086 -0.057,0.071 -0.868,1.02 -0.063,0.07 -0.921,0.954 -0.069,0.066 -0.974,0.889 -0.072,0.062 -1.027,0.822 -0.077,0.058 -1.079,0.757 -0.08,0.052 -1.131,0.691 -0.082,0.046 -1.184,0.625 -0.082,0.041 -1.238,0.559 -0.081,0.034 -1.29,0.494 -0.081,0.028 -1.342,0.428 -0.079,0.022 -1.395,0.362 -0.076,0.018 -1.448,0.296 -0.073,0.013 -1.5,0.23 -0.07,0.009 -1.553,0.165 -0.066,0.005 -1.605,0.099 -0.062,0.003 -1.659,0.032 -0.03,0.001 h -20.214 l 1.5,-1.5 z m -3,-26.953 0.022,-0.261 0.068,-0.252 0.111,-0.237 0.15,-0.214 0.184,-0.185 0.215,-0.15 0.237,-0.111 0.252,-0.067 0.261,-0.023 h 20.214 -0.029 l 1.658,-0.033 -0.062,0.003 1.605,-0.099 -0.066,0.006 1.553,-0.165 -0.069,0.009 1.5,-0.23 -0.073,0.013 1.448,-0.296 -0.076,0.017 1.395,-0.362 -0.079,0.023 1.342,-0.428 -0.08,0.029 1.289,-0.494 -0.082,0.034 1.238,-0.559 -0.083,0.04 1.185,-0.625 -0.082,0.046 1.132,-0.691 -0.079,0.053 1.079,-0.757 -0.077,0.057 1.027,-0.822 -0.073,0.062 0.974,-0.888 -0.069,0.066 0.922,-0.954 -0.063,0.069 0.868,-1.02 -0.057,0.072 0.816,-1.086 -0.051,0.072 0.763,-1.151 -0.045,0.072 0.711,-1.217 -0.039,0.072 0.658,-1.283 -0.034,0.07 0.605,-1.349 -0.028,0.068 0.552,-1.415 -0.024,0.066 0.5,-1.48 -0.019,0.063 0.447,-1.547 -0.016,0.061 0.395,-1.613 -0.013,0.057 0.342,-1.678 -0.01,0.054 0.29,-1.743 -0.008,0.051 0.237,-1.81 -0.005,0.048 0.184,-1.875 -0.004,0.045 0.132,-1.941 -0.003,0.042 0.079,-2.007 -0.001,0.04 0.027,-2.073 v 0.038 l -0.027,-2.072 0.001,0.04 -0.079,-2.007 0.003,0.042 -0.132,-1.941 0.004,0.045 -0.184,-1.875 0.005,0.048 -0.237,-1.81 0.008,0.051 -0.29,-1.744 0.01,0.054 -0.342,-1.678 0.013,0.057 -0.395,-1.612 0.016,0.06 -0.447,-1.546 0.019,0.063 -0.5,-1.481 0.024,0.066 -0.552,-1.414 0.028,0.068 -0.605,-1.349 0.034,0.07 -0.658,-1.283 0.039,0.072 -0.711,-1.218 0.045,0.073 -0.763,-1.152 0.051,0.073 -0.816,-1.086 0.057,0.071 -0.868,-1.02 0.063,0.07 -0.922,-0.954 0.069,0.066 -0.974,-0.888 0.073,0.062 -1.027,-0.823 0.077,0.058 -1.079,-0.757 0.079,0.052 -1.132,-0.691 0.082,0.047 -1.185,-0.625 0.083,0.04 -1.238,-0.56 0.082,0.035 -1.289,-0.494 0.08,0.028 -1.342,-0.427 0.079,0.022 -1.395,-0.362 0.076,0.018 -1.448,-0.296 0.073,0.013 -1.5,-0.23 0.069,0.009 -1.553,-0.165 0.066,0.006 -1.605,-0.099 0.062,0.003 -1.658,-0.033 h 0.029 -53.906 l 1.5,-1.5 v 94.336 l -1.5,-1.5 h 33.692 l -1.5,1.5 z m 3,-26.953 -1.5,-1.5 h 6.738 -0.048 l 0.816,-0.026 -0.106,0.007 0.763,-0.079 -0.119,0.017 0.711,-0.131 -0.132,0.03 0.658,-0.184 -0.142,0.048 0.606,-0.237 -0.15,0.068 0.553,-0.29 -0.151,0.091 0.5,-0.342 -0.145,0.113 0.447,-0.395 -0.132,0.133 0.395,-0.448 -0.114,0.146 0.343,-0.501 -0.091,0.151 0.289,-0.552 -0.068,0.149 0.237,-0.605 -0.047,0.142 0.184,-0.658 -0.031,0.131 0.132,-0.71 -0.017,0.118 0.079,-0.763 -0.007,0.106 0.026,-0.816 v 0.097 l -0.026,-0.816 0.007,0.106 -0.079,-0.764 0.017,0.119 -0.132,-0.71 0.031,0.131 -0.184,-0.658 0.047,0.142 -0.237,-0.605 0.068,0.149 -0.289,-0.553 0.091,0.151 -0.343,-0.5 0.114,0.146 -0.395,-0.448 0.132,0.132 -0.447,-0.394 0.145,0.113 -0.5,-0.342 0.151,0.09 -0.553,-0.289 0.15,0.068 -0.606,-0.237 0.142,0.048 -0.658,-0.185 0.132,0.031 -0.711,-0.132 0.119,0.017 -0.763,-0.079 0.106,0.008 -0.816,-0.027 0.048,0.001 h -6.738 l 1.5,-1.5 z m -3,-13.477 0.022,-0.26 0.068,-0.253 0.111,-0.237 0.15,-0.214 0.184,-0.185 0.215,-0.15 0.237,-0.11 0.252,-0.068 0.261,-0.023 h 6.738 l 0.048,0.001 0.816,0.026 0.106,0.007 0.764,0.079 0.118,0.017 0.711,0.132 0.131,0.031 0.658,0.184 0.142,0.047 0.606,0.237 0.149,0.068 0.553,0.29 0.151,0.091 0.5,0.342 0.146,0.113 0.447,0.395 0.132,0.132 0.395,0.448 0.113,0.145 0.343,0.5 0.09,0.151 0.29,0.553 0.068,0.149 0.237,0.606 0.048,0.142 0.184,0.658 0.03,0.131 0.132,0.711 0.017,0.119 0.079,0.763 0.007,0.106 0.026,0.816 v 0.097 l -0.026,0.816 -0.007,0.106 -0.079,0.763 -0.017,0.119 -0.132,0.71 -0.03,0.132 -0.184,0.658 -0.048,0.142 -0.237,0.605 -0.068,0.15 -0.29,0.553 -0.09,0.151 -0.343,0.5 -0.113,0.145 -0.395,0.448 -0.132,0.132 -0.447,0.395 -0.146,0.113 -0.5,0.342 -0.151,0.091 -0.553,0.289 -0.149,0.068 -0.606,0.237 -0.142,0.048 -0.658,0.184 -0.131,0.031 -0.711,0.131 -0.118,0.017 -0.764,0.079 -0.106,0.008 -0.816,0.026 -0.048,0.001 h -6.738 l -0.261,-0.023 -0.252,-0.068 -0.237,-0.11 -0.215,-0.15 -0.184,-0.185 -0.15,-0.214 -0.111,-0.237 -0.068,-0.253 -0.022,-0.26 V 215.18" /></g><g
             id="g58"><path
               id="path60"
               style="fill:#726cf4;fill-opacity:1;fill-rule:nonzero;stroke:none"
               d="m 665.451,293.065 2.739,-3.401 -0.012,0.016 1.315,-1.679 -0.016,0.021 1.249,-1.653 -0.015,0.021 0.593,-0.813 -0.013,0.017 0.569,-0.804 -0.015,0.021 0.541,-0.793 -0.016,0.024 0.511,-0.781 -0.018,0.029 0.478,-0.768 -0.02,0.033 0.442,-0.754 -0.022,0.04 0.404,-0.739 -0.024,0.047 0.363,-0.723 -0.029,0.061 0.164,-0.366 -0.027,0.064 0.151,-0.382 -0.022,0.058 0.138,-0.397 -0.017,0.052 0.126,-0.409 -0.014,0.047 0.114,-0.42 -0.011,0.042 0.104,-0.427 -0.013,0.054 0.177,-0.872 -0.012,0.061 0.141,-0.882 -0.007,0.049 0.109,-0.876 -0.005,0.04 0.084,-0.854 -0.003,0.031 0.063,-0.815 -0.002,0.029 0.083,-1.453 v 0.004 l 0.062,-1.133 0.042,-0.474 0.082,-0.46 0.202,-0.518 0.63,-0.6 0.72,-0.091 0.419,0.072 0.29,0.131 0.154,0.101 0.207,0.162 0.285,0.375 0.16,0.405 0.08,0.344 0.087,0.62 0.068,0.773 0.058,0.916 0.099,2.173 0.095,2.465 v -0.007 l 0.108,2.514 v -0.016 l 0.064,1.199 -10e-4,-0.018 0.074,1.119 -0.002,-0.029 0.086,1.008 -0.004,-0.045 0.1,0.865 -0.007,-0.052 0.056,0.369 -0.009,-0.052 0.06,0.322 -0.016,-0.073 0.065,0.27 -0.031,-0.112 0.069,0.215 -0.055,-0.145 0.073,0.167 -0.083,-0.162 0.078,0.131 -0.146,-0.204 0.081,0.095 -0.25,-0.233 0.085,0.062 -0.381,-0.204 0.088,0.032 -0.46,-0.09 0.091,0.004 -0.417,0.044 0.094,-0.024 -0.304,0.113 0.096,-0.048 -0.202,0.121 0.1,-0.071 -0.132,0.106 0.102,-0.092 -0.119,0.12 0.212,-0.239 -0.085,0.105 0.219,-0.297 -0.042,0.06 0.226,-0.341 -0.021,0.034 0.471,-0.753 0.255,-0.398 0.277,-0.405 0.306,-0.401 0.337,-0.368 0.229,-0.205 0.251,-0.184 0.302,-0.17 0.329,-0.121 0.29,-0.063 0.252,-0.03 0.243,-0.008 0.256,0.01 0.404,0.058 0.392,0.099 0.356,0.12 0.333,0.133 0.564,0.256 0.528,0.241 -0.055,-0.024 0.258,0.106 -0.074,-0.028 0.253,0.088 -0.112,-0.034 0.247,0.065 -0.159,-0.033 0.24,0.036 -0.155,-0.015 0.117,0.005 -0.123,-0.001 0.115,-0.004 -0.136,0.011 0.111,-0.014 -0.147,0.027 0.11,-0.026 -0.176,0.052 0.106,-0.038 -0.18,0.079 0.101,-0.053 -0.21,0.133 0.192,-0.145 -0.187,0.168 0.179,-0.19 -0.111,0.132 0.169,-0.226 -0.064,0.093 0.16,-0.252 -0.036,0.059 0.156,-0.271 -0.018,0.031 0.318,-0.586 0.361,-0.613 0.251,-0.35 0.306,-0.344 0.368,-0.303 0.28,-0.166 0.285,-0.124 0.316,-0.088 0.336,-0.042 0.34,0.009 0.344,0.06 0.334,0.113 0.296,0.147 0.257,0.161 0.246,0.182 0.408,0.355 0.403,0.406 0.394,0.434 0.39,0.456 0.756,0.92 -0.003,-0.005 0.733,0.886 -0.027,-0.032 0.35,0.399 -0.038,-0.042 0.333,0.352 -0.065,-0.064 0.31,0.291 -0.117,-0.099 0.284,0.216 -0.156,-0.105 0.13,0.076 -0.167,-0.083 0.123,0.052 -0.248,-0.081 0.113,0.026 -0.354,-0.038 0.103,-10e-4 -0.381,0.054 0.092,-0.025 -0.337,0.139 0.079,-0.045 -0.286,0.21 0.068,-0.063 -0.202,0.232 0.057,-0.082 -0.125,0.212 0.048,-0.098 -0.071,0.174 0.038,-0.114 -0.051,0.191 0.054,-0.272 -0.023,0.16 0.028,-0.323 -0.005,0.089 0.01,-0.369 -10e-4,0.051 -0.006,-0.847 -0.002,-0.479 0.01,-0.52 0.03,-0.55 0.061,-0.574 0.103,-0.593 0.153,-0.584 0.111,-0.321 0.126,-0.305 0.147,-0.302 0.169,-0.293 0.184,-0.277 0.205,-0.273 0.409,-0.474 0.454,-0.456 0.479,-0.434 0.497,-0.418 0.507,-0.409 1.027,-0.81 -0.013,0.01 0.517,-0.417 -0.024,0.02 0.509,-0.428 -0.035,0.03 0.495,-0.442 -0.046,0.042 0.471,-0.458 -0.056,0.057 0.441,-0.477 -0.065,0.076 0.401,-0.497 -0.053,0.07 0.184,-0.257 -0.038,0.054 0.171,-0.263 -0.037,0.061 0.157,-0.269 -0.037,0.068 0.142,-0.276 -0.039,0.081 0.128,-0.288 -0.034,0.083 0.114,-0.306 -0.025,0.074 0.101,-0.321 -0.019,0.065 0.089,-0.335 -0.014,0.057 0.079,-0.348 -0.011,0.05 0.068,-0.36 -0.01,0.062 0.109,-0.749 -0.008,0.064 0.08,-0.779 -0.004,0.046 0.057,-0.798 -0.002,0.037 0.074,-1.61 v 0.002 l 0.071,-1.575 0.055,-0.775 0.078,-0.749 0.112,-0.707 0.079,-0.363 0.091,-0.347 0.113,-0.341 0.137,-0.338 0.171,-0.333 0.205,-0.316 0.229,-0.281 0.246,-0.248 0.263,-0.22 0.276,-0.191 0.286,-0.164 0.292,-0.138 0.296,-0.113 0.297,-0.092 0.298,-0.071 0.297,-0.053 0.297,-0.037 0.31,-0.024 0.565,-0.006 0.572,0.037 0.559,0.074 0.542,0.103 0.521,0.129 0.497,0.15 0.47,0.167 0.438,0.181 0.407,0.195 0.373,0.21 0.344,0.233 0.319,0.264 0.289,0.299 0.25,0.329 0.204,0.349 0.16,0.355 0.122,0.354 0.098,0.363 0.14,0.691 0.127,0.775 -10e-4,-0.006 0.152,0.904 -0.007,-0.039 0.212,1.082 -0.002,-0.009 0.13,0.641 0.134,0.727 0.269,1.609 0.559,3.672 0.292,1.936 -10e-4,-0.009 0.301,1.911 -0.003,-0.018 0.31,1.818 -0.004,-0.022 0.158,0.853 -0.004,-0.02 0.161,0.803 -0.005,-0.026 0.169,0.776 -0.006,-0.025 0.183,0.773 -0.008,-0.03 0.395,1.531 -0.008,-0.028 0.417,1.495 -0.004,-0.015 0.419,1.443 -0.001,-0.002 0.403,1.381 0.37,1.309 0.314,1.219 0.133,0.588 0.112,0.561 0.156,0.981 0.056,0.462 0.042,0.428 0.027,0.404 0.015,0.382 0.003,0.363 -0.008,0.354 -0.043,0.621 -0.074,0.567 -0.089,0.508 -0.092,0.455 -2.941,-0.595 0.089,-0.437 -0.007,0.038 0.08,-0.455 -0.01,0.068 0.063,-0.49 -0.009,0.088 0.038,-0.542 -0.003,0.07 0.007,-0.296 -10e-4,0.047 -0.002,-0.316 10e-4,0.046 -0.013,-0.337 0.002,0.044 -0.025,-0.362 0.004,0.042 -0.038,-0.388 0.004,0.039 -0.051,-0.416 0.008,0.053 -0.148,-0.926 0.01,0.056 -0.102,-0.513 0.009,0.04 -0.124,-0.546 0.01,0.042 -0.304,-1.182 0.009,0.033 -0.363,-1.286 0.003,0.013 -0.401,-1.375 -0.422,-1.452 -0.423,-1.518 -0.402,-1.56 -0.188,-0.8 -0.175,-0.801 -0.165,-0.826 -0.163,-0.873 -0.313,-1.84 -0.304,-1.925 -0.293,-1.94 10e-4,0.002 -0.558,-3.661 0.004,0.022 -0.265,-1.586 0.004,0.024 -0.129,-0.701 0.005,0.025 -0.128,-0.633 -0.217,-1.106 -0.156,-0.926 -0.123,-0.751 0.009,0.052 -0.124,-0.616 0.023,0.095 -0.072,-0.266 0.03,0.099 -0.084,-0.242 0.05,0.124 -0.099,-0.22 0.073,0.143 -0.118,-0.202 0.099,0.148 -0.141,-0.187 0.117,0.137 -0.168,-0.174 0.122,0.114 -0.198,-0.165 0.116,0.087 -0.234,-0.158 0.104,0.064 -0.278,-0.156 0.088,0.045 -0.325,-0.155 0.076,0.033 -0.366,-0.151 0.071,0.028 -0.399,-0.142 0.07,0.023 -0.426,-0.128 0.073,0.019 -0.446,-0.11 0.078,0.017 -0.46,-0.088 0.087,0.014 -0.467,-0.061 0.099,0.01 -0.467,-0.031 0.114,0.003 -0.459,0.005 0.097,-0.004 -0.225,0.017 0.072,-0.007 -0.221,0.028 0.079,-0.012 -0.216,0.039 0.084,-0.018 -0.21,0.05 0.091,-0.025 -0.203,0.063 0.097,-0.034 -0.196,0.075 0.103,-0.043 -0.187,0.088 0.106,-0.056 -0.178,0.102 0.108,-0.068 -0.168,0.116 0.108,-0.082 -0.157,0.131 0.104,-0.095 -0.145,0.146 0.097,-0.107 -0.133,0.162 0.095,-0.13 -0.119,0.183 0.078,-0.134 -0.106,0.206 0.054,-0.116 -0.094,0.229 0.037,-0.099 -0.083,0.251 0.025,-0.083 -0.072,0.27 0.017,-0.069 -0.062,0.289 0.015,-0.082 -0.099,0.627 0.01,-0.078 -0.072,0.684 0.005,-0.051 -0.052,0.73 0.002,-0.037 -0.07,1.557 -0.075,1.63 -0.06,0.839 -0.086,0.834 -0.118,0.813 -0.079,0.415 -0.09,0.402 -0.106,0.397 -0.123,0.39 -0.143,0.384 -0.164,0.37 -0.181,0.35 -0.195,0.334 -0.208,0.321 -0.229,0.32 -0.461,0.571 -0.501,0.543 -0.523,0.508 -0.535,0.478 -0.538,0.453 -0.534,0.431 -1.028,0.81 0.012,-0.009 -0.488,0.394 0.025,-0.021 -0.464,0.39 0.041,-0.035 -0.431,0.39 0.056,-0.054 -0.389,0.391 0.073,-0.079 -0.34,0.395 0.065,-0.081 -0.149,0.199 0.047,-0.067 -0.134,0.201 0.053,-0.085 -0.119,0.206 0.048,-0.09 -0.104,0.213 0.039,-0.086 -0.091,0.22 0.031,-0.081 -0.079,0.227 0.034,-0.109 -0.123,0.467 0.027,-0.124 -0.084,0.481 0.014,-0.099 -0.051,0.487 0.006,-0.076 -0.027,0.485 0.002,-0.054 -0.009,0.476 v -0.033 l 0.002,0.46 v -0.006 l 0.006,0.869 -0.011,0.439 -0.039,0.448 -0.088,0.447 -0.099,0.297 -0.142,0.293 -0.217,0.308 -0.312,0.292 -0.396,0.223 -0.457,0.126 -0.478,0.006 -0.415,-0.095 -0.329,-0.14 -0.293,-0.169 -0.421,-0.32 -0.4,-0.375 -0.384,-0.406 -0.382,-0.436 -0.748,-0.903 -0.749,-0.911 0.02,0.023 -0.367,-0.428 0.028,0.032 -0.356,-0.392 0.047,0.049 -0.341,-0.343 0.078,0.073 -0.321,-0.28 0.095,0.076 -0.152,-0.112 0.094,0.064 -0.145,-0.091 0.131,0.073 -0.138,-0.068 0.187,0.077 -0.13,-0.043 0.221,0.056 -0.123,-0.022 0.217,0.022 -0.118,-0.003 0.226,-0.011 -0.113,0.014 0.218,-0.043 -0.108,0.03 0.195,-0.07 -0.103,0.045 0.166,-0.085 -0.1,0.059 0.19,-0.133 -0.189,0.156 0.167,-0.161 -0.176,0.198 0.098,-0.122 -0.167,0.232 0.073,-0.112 -0.313,0.532 0.027,-0.049 -0.313,0.579 -0.182,0.316 -0.209,0.329 -0.254,0.34 -0.324,0.344 -0.391,0.296 -0.3,0.156 -0.284,0.104 -0.272,0.063 -0.254,0.033 -0.244,0.009 -0.256,-0.012 -0.397,-0.059 -0.383,-0.101 -0.346,-0.12 -0.323,-0.133 -0.554,-0.252 0.004,0.002 -0.531,-0.241 0.062,0.026 -0.264,-0.105 0.077,0.028 -0.261,-0.088 0.113,0.033 -0.258,-0.065 0.156,0.031 -0.252,-0.036 0.148,0.014 -0.124,-0.006 0.115,10e-4 -0.122,0.004 0.127,-0.01 -0.12,0.015 0.136,-0.023 -0.118,0.025 0.204,-0.059 -0.117,0.043 0.216,-0.099 -0.119,0.066 0.155,-0.099 -0.119,0.087 0.109,-0.089 -0.12,0.107 0.108,-0.107 -0.24,0.264 0.085,-0.102 -0.242,0.317 0.047,-0.065 -0.241,0.353 0.024,-0.038 -0.239,0.374 0.008,-0.011 -0.479,0.763 -0.257,0.388 -0.282,0.381 -0.312,0.352 -0.227,0.205 -0.265,0.189 -0.349,0.174 -0.459,0.115 -0.539,-0.019 -0.516,-0.187 -0.399,-0.295 -0.274,-0.323 -0.189,-0.316 -0.142,-0.322 -0.111,-0.345 -0.087,-0.363 -0.072,-0.384 -0.063,-0.421 -0.106,-0.913 -0.089,-1.044 -0.076,-1.142 -0.065,-1.216 -0.109,-2.526 -0.095,-2.463 v 0.011 l -0.098,-2.155 10e-4,0.026 -0.056,-0.886 0.003,0.038 -0.063,-0.716 0.009,0.077 -0.072,-0.514 0.025,0.133 -0.04,-0.172 0.065,0.209 -0.044,-0.11 0.203,0.359 -0.042,-0.055 0.269,0.273 -0.005,-0.004 0.104,0.074 -0.005,-0.003 0.201,0.11 -0.009,-0.004 0.364,0.112 -0.008,-0.002 0.442,0.01 -0.008,10e-4 0.847,-0.402 -0.032,0.03 0.362,-0.539 -0.027,0.069 0.08,-0.285 -0.044,0.25 0.017,-0.127 -0.035,0.384 0.004,-0.052 -0.061,1.109 -0.084,1.469 -0.065,0.845 -0.087,0.89 -0.115,0.92 -0.149,0.939 -0.187,0.93 -0.115,0.477 -0.126,0.463 -0.141,0.458 -0.157,0.452 -0.174,0.443 -0.192,0.427 -0.39,0.776 -0.427,0.781 -0.464,0.79 -0.497,0.798 -0.528,0.808 -0.557,0.815 -0.582,0.823 -0.607,0.833 -1.265,1.673 -1.329,1.697 -2.746,3.409 -2.336,-1.882" /></g><g
             id="g62"><text
               id="text66"
               style="font-variant:normal;font-weight:bold;font-stretch:normal;font-size:24px;font-family:'DejaVu Sans';-inkscape-font-specification:DejaVuSans-Bold;writing-mode:lr-tb;fill:#404040;fill-opacity:1;fill-rule:nonzero;stroke:none"
               transform="translate(281.658,322.084)"><tspan
                 id="tspan64"
                 y="0"
                 x="0 15.3 24.75 39.25 51.5 66.599998 80.800003 93.099998 102.55 108.8 121.05 127.4 150.39999 165.5 171.75 181.2 187.45 195.39999 209.7 224.8 239.10001 248.95 264.14999 277.79999 284.14999 290.39999 304.89999 319.10001 334.29999 340.64999 355.85001 365.70001 380.20001 388.64999 394.89999 401.14999 415.45001">Stochastic multi-energy load profiles</tspan></text>
</g></g></g></g></g></svg>